<?xml version="1.0" encoding="UTF-8"?>
<svg id="_Слой_2" data-name="Слой 2" xmlns="http://www.w3.org/2000/svg" viewBox="0 0 40 32">
  <defs>
    <style>
      .cls-1 {
        fill: #fff;
      }
    </style>
  </defs>
  <path class="cls-1" d="m39.55,12.73l-4.47-5.53c-1.84-2.28-4.14-4.08-6.72-5.31-2.58-1.23-5.42-1.89-8.35-1.89-5.81,0-11.31,2.63-14.96,7.15L.63,12.63c-.35.43-.53.96-.53,1.51v14.99c0,1.58,1.29,2.87,2.87,2.87h33.91c1.77,0,3.22-1.45,3.22-3.22v-14.5c0-.56-.2-1.11-.55-1.55ZM12.23,30.39h-4.59V12.31l4.59-3.72v21.8Zm11.43,0h-7.32V5.92l3.71-4.31,3.61,4.41v24.37Zm8.49-.01h-4.48V8.43l4.48,3.67v18.28Z"/>
</svg>